<svg xmlns="http://www.w3.org/2000/svg" viewBox="0 0 200 80" fill="none" stroke="#ffffff" stroke-width="1.2" stroke-linecap="round" stroke-linejoin="round" aria-hidden="true">
  <!-- ramo di ciliegio con fiori (sakura) -->
  <path d="M10 60 Q 60 50 100 45 T 190 35" />
  <path d="M40 55 Q 45 45 50 40" />
  <path d="M120 42 Q 125 32 130 28" />
  <!-- fiori a 5 petali -->
  <g>
    <circle cx="50" cy="40" r="2" />
    <path d="M50 40 m-8,0 a8,8 0 0 1 4,-7 a8,8 0 0 1 8,0 a8,8 0 0 1 4,7 a8,8 0 0 1 -4,7 a8,8 0 0 1 -8,0 a8,8 0 0 1 -4,-7 z" opacity=".55" />
  </g>
  <g>
    <circle cx="90" cy="46" r="2" />
    <path d="M90 46 m-7,0 a7,7 0 0 1 3.5,-6 a7,7 0 0 1 7,0 a7,7 0 0 1 3.5,6 a7,7 0 0 1 -3.5,6 a7,7 0 0 1 -7,0 a7,7 0 0 1 -3.5,-6 z" opacity=".55" />
  </g>
  <g>
    <circle cx="130" cy="28" r="2" />
    <path d="M130 28 m-8,0 a8,8 0 0 1 4,-7 a8,8 0 0 1 8,0 a8,8 0 0 1 4,7 a8,8 0 0 1 -4,7 a8,8 0 0 1 -8,0 a8,8 0 0 1 -4,-7 z" opacity=".55" />
  </g>
  <g>
    <circle cx="160" cy="40" r="2" />
    <path d="M160 40 m-7,0 a7,7 0 0 1 3.5,-6 a7,7 0 0 1 7,0 a7,7 0 0 1 3.5,6 a7,7 0 0 1 -3.5,6 a7,7 0 0 1 -7,0 a7,7 0 0 1 -3.5,-6 z" opacity=".55" />
  </g>
  <!-- petali che cadono -->
  <circle cx="70" cy="62" r="1.5" opacity=".5" />
  <circle cx="105" cy="68" r="1.5" opacity=".5" />
  <circle cx="145" cy="60" r="1.5" opacity=".5" />
</svg>
