<svg xmlns="http://www.w3.org/2000/svg" viewBox="0 0 200 100" fill="none" stroke="#ffffff" stroke-width="1.4" stroke-linecap="round" stroke-linejoin="round" aria-hidden="true">
  <!-- globo / terra al centro -->
  <circle cx="100" cy="50" r="32" fill="#ffffff" fill-opacity=".08" />
  <!-- paralleli -->
  <ellipse cx="100" cy="50" rx="32" ry="10" opacity=".55" />
  <ellipse cx="100" cy="50" rx="32" ry="22" opacity=".4" />
  <!-- meridiano centrale -->
  <line x1="100" y1="18" x2="100" y2="82" opacity=".5" />
  <!-- continenti molto stilizzati -->
  <path d="M82 42 q 6 -4 14 -2 q 4 4 -2 8 q -8 4 -12 -6 z" fill="#ffffff" fill-opacity=".25" stroke="none" />
  <path d="M104 50 q 10 -2 14 4 q -2 8 -10 8 q -8 -2 -4 -12 z" fill="#ffffff" fill-opacity=".25" stroke="none" />
  <path d="M86 64 q 4 -2 8 0 q 0 4 -4 4 q -6 0 -4 -4 z" fill="#ffffff" fill-opacity=".25" stroke="none" />
  <!-- mani che reggono / abbracciano -->
  <path d="M55 80 q 8 -10 25 -8" opacity=".7" />
  <path d="M145 80 q -8 -10 -25 -8" opacity=".7" />
</svg>
